<?xml version="1.0" encoding="utf-8"?>
<!-- Generator: Adobe Illustrator 16.0.4, SVG Export Plug-In . SVG Version: 6.00 Build 0)  -->
<!DOCTYPE svg PUBLIC "-//W3C//DTD SVG 1.1//EN" "http://www.w3.org/Graphics/SVG/1.1/DTD/svg11.dtd">
<svg version="1.1" id="レイヤー_1" xmlns="http://www.w3.org/2000/svg" xmlns:xlink="http://www.w3.org/1999/xlink" x="0px"
	 y="0px" width="24px" height="24px" viewBox="0 0 24 24" enable-background="new 0 0 24 24" xml:space="preserve">
<path fill="#339900" d="M17,3V1c0-0.552,0.447-1,1-1s1,0.448,1,1v2c0,0.552-0.447,1-1,1S17,3.552,17,3z M5,4c0.553,0,1-0.448,1-1V1
	c0-0.552-0.447-1-1-1S4,0.448,4,1v2C4,3.552,4.447,4,5,4z M18,17v-3h-1v4h3v-1H18z M13,17.5c0,2.48,2.02,4.5,4.5,4.5
	s4.5-2.02,4.5-4.5S19.98,13,17.5,13S13,15.02,13,17.5z M24,17.5c0,3.59-2.91,6.5-6.5,6.5S11,21.09,11,17.5s2.91-6.5,6.5-6.5
	S24,13.91,24,17.5z M9.763,21H2V8h19v1.763c0.727,0.33,1.398,0.757,2,1.268V2h-3v1c0,1.316-1.277,2.339-2.658,1.894
	C16.512,4.626,16,3.783,16,2.91V2H7v1c0,1.316-1.278,2.339-2.658,1.894C3.511,4.626,3,3.783,3,2.91V2H0v21h11.031
	C10.52,22.398,10.093,21.727,9.763,21z"/>
</svg>
