<?xml version="1.0" encoding="utf-8"?>
<!-- Generator: Adobe Illustrator 16.0.4, SVG Export Plug-In . SVG Version: 6.00 Build 0)  -->
<!DOCTYPE svg PUBLIC "-//W3C//DTD SVG 1.1//EN" "http://www.w3.org/Graphics/SVG/1.1/DTD/svg11.dtd">
<svg version="1.1" id="Layer_1" xmlns="http://www.w3.org/2000/svg" xmlns:xlink="http://www.w3.org/1999/xlink" x="0px" y="0px"
	 width="40px" height="40px" viewBox="0 0 40 40" enable-background="new 0 0 40 40" xml:space="preserve">
<g>
	<g id="Icon-Pencil" transform="translate(179.000000, 382.000000)">
		<path id="Fill-168" d="M-172.25-348.25l2.312-9.312l14.188-14.188l7,7l-14.188,14.188L-172.25-348.25L-172.25-348.25z
			 M-168.312-356.688l-1.5,6l6-1.5l12.625-12.625l-4.5-4.5L-168.312-356.688L-168.312-356.688z"/>
		<path id="Fill-169" d="M-164.438-351.125c-0.625-2.438-2.5-4.312-4.938-4.938l0.438-1.75c3.062,0.75,5.438,3.125,6.188,6.188
			L-164.438-351.125"/>
		<polyline id="Fill-170" points="-164.625,-354.562 -165.875,-355.875 -153.438,-368.312 -152.188,-367.062 -164.625,-354.562 		
			"/>
		<path id="Fill-171" d="M-171-349.5l2.75-0.688c-0.25-1-1.062-1.812-2.062-2.062L-171-349.5"/>
		<path id="Fill-172" d="M-148.062-365.438l-7-7l2.812-2.812l0.438,0.062c3.375,0.438,6.062,3.125,6.5,6.5l0.062,0.438
			L-148.062-365.438L-148.062-365.438z M-152.5-372.438l4.5,4.5l0.875-0.875c-0.5-2.25-2.25-4-4.5-4.5L-152.5-372.438
			L-152.5-372.438z"/>
	</g>
</g>
</svg>
