<?xml version="1.0" encoding="utf-8"?>
<!-- Generator: Adobe Illustrator 16.0.4, SVG Export Plug-In . SVG Version: 6.00 Build 0)  -->
<!DOCTYPE svg PUBLIC "-//W3C//DTD SVG 1.1//EN" "http://www.w3.org/Graphics/SVG/1.1/DTD/svg11.dtd">
<svg version="1.1" id="Layer_1" xmlns="http://www.w3.org/2000/svg" xmlns:xlink="http://www.w3.org/1999/xlink" x="0px" y="0px"
	 width="40px" height="40px" viewBox="0 0 40 40" enable-background="new 0 0 40 40" xml:space="preserve">
<g>
	<g id="Icon-Link" transform="translate(30.000000, 380.000000)">
		<path id="Fill-177" d="M-10.938-354.812c0.062,0.25,0.062,0.5,0.062,0.75c0,1.375-0.5,2.625-1.5,3.562l-2,2
			c-0.938,0.938-2.25,1.5-3.562,1.5c-2.812,0-5.062-2.25-5.062-5.062c0-1.375,0.5-2.625,1.5-3.562l2-2
			c0.938-0.938,2.25-1.5,3.625-1.5c0.25,0,0.5,0.062,0.75,0.062l1.562-1.562c-0.75-0.25-1.5-0.375-2.312-0.375
			c-1.875,0-3.625,0.75-4.938,2.062l-2,2c-1.312,1.312-2.062,3.062-2.062,4.938c0,3.812,3.125,6.938,6.938,6.938
			c1.875,0,3.625-0.75,4.938-2.062l2-2c1.312-1.312,2.062-3.062,2.062-4.938c0-0.812-0.125-1.562-0.375-2.312L-10.938-354.812"/>
		<path id="Fill-178" d="M-1.938-375c-1.875,0-3.625,0.75-4.938,2.062l-2,2c-1.312,1.312-2.062,3.062-2.062,4.938
			c0,0.812,0.125,1.562,0.375,2.312L-9-365.25c-0.062-0.25-0.062-0.5-0.062-0.75c0-1.375,0.5-2.625,1.5-3.562l2-2
			c0.938-0.938,2.25-1.5,3.625-1.5c2.812,0,5.062,2.25,5.062,5.062c0,1.375-0.5,2.625-1.5,3.562l-2,2
			c-0.938,0.938-2.25,1.5-3.562,1.5c-0.25,0-0.5-0.062-0.75-0.062l-1.562,1.5c0.75,0.25,1.5,0.375,2.312,0.375
			c1.875,0,3.625-0.75,4.938-2.062l2-2c1.312-1.312,2.062-3.062,2.062-4.938C5-371.875,1.875-375-1.938-375"/>
		<path id="Fill-179" d="M-14.938-354.062c-0.25,0-0.5-0.125-0.688-0.312c-0.375-0.375-0.375-1,0-1.438l10-10
			c0.375-0.375,1-0.375,1.438,0c0.375,0.375,0.375,1,0,1.438l-10,10C-14.438-354.125-14.688-354.062-14.938-354.062"/>
	</g>
</g>
</svg>
