<?xml version="1.0" encoding="utf-8"?>
<!-- Generator: Adobe Illustrator 16.0.4, SVG Export Plug-In . SVG Version: 6.00 Build 0)  -->
<!DOCTYPE svg PUBLIC "-//W3C//DTD SVG 1.1//EN" "http://www.w3.org/Graphics/SVG/1.1/DTD/svg11.dtd">
<svg version="1.1" id="Layer_1" xmlns="http://www.w3.org/2000/svg" xmlns:xlink="http://www.w3.org/1999/xlink" x="0px" y="0px"
	 width="40px" height="40px" viewBox="30 30 40 40" enable-background="new 30 30 40 40" xml:space="preserve">
<path fill="#231F20" d="M66.832,47.644h-2.387c-0.133-0.701-0.746-1.347-1.486-1.347h-1.01c-0.057,0-0.168-0.213-0.168-0.207v-2.205
	c0-0.835-0.68-1.627-1.516-1.627H57.91c-0.836,0-1.515,0.792-1.515,1.627v3.759H43.603v-3.759c0-0.835-0.68-1.627-1.515-1.627
	h-2.356c-0.835,0-1.514,0.792-1.514,1.627v2.226c0-0.006-0.112,0.186-0.169,0.186h-1.01c-0.732,0-1.344,0.655-1.484,1.347h-2.387
	v4.713h2.359c0.02,0.819,0.688,1.347,1.512,1.347h1.01c0.058,0,0.169,0.123,0.169,0.116v2.521c0,0.834,0.679,1.401,1.514,1.401
	h2.356c0.835,0,1.515-0.567,1.515-1.401v-3.984h12.792v3.984c0,0.834,0.679,1.401,1.515,1.401h2.355
	c0.836,0,1.516-0.567,1.516-1.401v-2.543c0,0.007,0.111-0.095,0.168-0.095h1.01c0.816,0,1.48-0.537,1.51-1.347h2.363V47.644z
	 M34.514,48.99h1.01v2.02h-1.01V48.99z M38.217,52.188c0,0.094-0.076,0.169-0.168,0.169h-1.01c-0.093,0-0.168-0.075-0.168-0.169
	v-4.375c0-0.093,0.075-0.168,0.168-0.168h1.01c0.093,0,0.168,0.076,0.168,0.168V52.188z M42.257,56.341
	c0,0.091-0.078,0.056-0.169,0.056h-2.356c-0.091,0-0.168,0.035-0.168-0.056v-4.019v-4.377v-4.061c0-0.091,0.077-0.281,0.168-0.281
	h2.356c0.091,0,0.169,0.189,0.169,0.281V56.341z M43.603,51.01v-2.02h12.792v2.02H43.603z M60.436,56.341
	c0,0.091-0.078,0.056-0.17,0.056H57.91c-0.092,0-0.168,0.035-0.168-0.056V43.885c0-0.091,0.076-0.281,0.168-0.281h2.355
	c0.092,0,0.17,0.189,0.17,0.281v4.04v4.376V56.341z M63.129,52.188c0,0.094-0.076,0.169-0.17,0.169h-1.008
	c-0.094,0-0.17-0.075-0.17-0.169v-4.375c0-0.093,0.076-0.168,0.17-0.168h1.008c0.094,0,0.17,0.076,0.17,0.168V52.188z M65.484,51.01
	h-1.01v-2.02h1.01V51.01z"/>
</svg>
