<?xml version="1.0" encoding="utf-8"?>
<!-- Generator: Adobe Illustrator 16.0.4, SVG Export Plug-In . SVG Version: 6.00 Build 0)  -->
<!DOCTYPE svg PUBLIC "-//W3C//DTD SVG 1.1//EN" "http://www.w3.org/Graphics/SVG/1.1/DTD/svg11.dtd">
<svg version="1.1" id="レイヤー_1" xmlns="http://www.w3.org/2000/svg" xmlns:xlink="http://www.w3.org/1999/xlink" x="0px"
	 y="0px" width="40px" height="40px" viewBox="0 0 40 40" enable-background="new 0 0 40 40" xml:space="preserve">
<g>
	<title></title>
	<path d="M37.46,18.75c-0.261-0.001-0.515-0.085-0.726-0.237L19.96,6.538L3.185,18.513c-0.594,0.352-1.361,0.155-1.712-0.438
		c-0.31-0.522-0.199-1.192,0.262-1.587l17.5-12.5c0.434-0.309,1.016-0.309,1.451,0l17.499,12.5c0.56,0.405,0.685,1.187,0.279,1.746
		C38.23,18.556,37.857,18.748,37.46,18.75z"/>
	<path d="M6.21,11.25c-0.69,0-1.25-0.56-1.25-1.25V5c0-0.69,0.56-1.25,1.25-1.25h5c0.69,0,1.25,0.56,1.25,1.25s-0.56,1.25-1.25,1.25
		H7.46V10C7.46,10.69,6.9,11.25,6.21,11.25z"/>
	<path d="M31.21,36.25h-6.25c-0.69,0-1.25-0.56-1.25-1.25v-8.75h-7.5V35c0,0.69-0.56,1.25-1.25,1.25H8.71
		c-2.071,0-3.75-1.679-3.75-3.75V20c0-0.69,0.56-1.25,1.25-1.25S7.46,19.31,7.46,20v12.5c0,0.69,0.56,1.25,1.25,1.25h5V25
		c0-0.69,0.56-1.25,1.25-1.25h10c0.69,0,1.25,0.56,1.25,1.25v8.75h5c0.69,0,1.25-0.56,1.25-1.25V20c0-0.69,0.56-1.25,1.25-1.25
		s1.25,0.56,1.25,1.25v12.5C34.96,34.571,33.281,36.25,31.21,36.25z"/>
</g>
</svg>
