<?xml version="1.0" encoding="utf-8"?>
<!-- Generator: Adobe Illustrator 16.0.4, SVG Export Plug-In . SVG Version: 6.00 Build 0)  -->
<!DOCTYPE svg PUBLIC "-//W3C//DTD SVG 1.1//EN" "http://www.w3.org/Graphics/SVG/1.1/DTD/svg11.dtd">
<svg version="1.1" id="レイヤー_1" xmlns="http://www.w3.org/2000/svg" xmlns:xlink="http://www.w3.org/1999/xlink" x="0px"
	 y="0px" width="40px" height="40px" viewBox="0 0 40 40" enable-background="new 0 0 40 40" xml:space="preserve">
<g>
	<title></title>
	<g id="Layer_59">
		<path d="M34.336,35.396H5.591c-0.567,0-1.026-0.461-1.026-1.027V15.892c0-0.567,0.459-1.027,1.026-1.027
			c0.567,0,1.027,0.459,1.027,1.027v17.452h26.69V15.892c0-0.567,0.459-1.027,1.027-1.027c0.566,0,1.025,0.459,1.025,1.027v18.478
			C35.361,34.936,34.902,35.396,34.336,35.396z"/>
		<path d="M34.336,16.918c-0.215-0.001-0.422-0.07-0.596-0.195L19.963,6.889L6.187,16.723c-0.488,0.289-1.118,0.127-1.406-0.36
			c-0.254-0.429-0.163-0.979,0.215-1.303L19.368,4.794c0.356-0.253,0.834-0.253,1.191,0L34.93,15.06
			c0.461,0.333,0.562,0.975,0.23,1.434C34.969,16.758,34.662,16.917,34.336,16.918z"/>
		<path d="M19.963,26.711c-0.639,0.01-1.265-0.184-1.786-0.555L4.996,16.723c-0.431-0.369-0.481-1.017-0.112-1.448
			c0.324-0.378,0.874-0.469,1.303-0.216l13.181,9.413c0.356,0.254,0.834,0.254,1.191,0L33.74,15.06
			c0.43-0.368,1.078-0.318,1.447,0.112s0.318,1.079-0.113,1.448c-0.045,0.039-0.092,0.073-0.145,0.104l-13.18,9.433
			C21.229,26.527,20.603,26.721,19.963,26.711z"/>
		<rect x="4.653" y="28.206" transform="matrix(-0.8321 0.5546 -0.5546 -0.8321 34.9132 47.8954)" width="11.107" height="2.052"/>
		<rect x="28.686" y="23.683" transform="matrix(-0.5549 0.8319 -0.8319 -0.5549 70.5215 20.7427)" width="2.052" height="11.107"/>
		<rect x="12.777" y="14.865" width="14.371" height="2.053"/>
	</g>
</g>
</svg>
