<?xml version="1.0" encoding="utf-8"?>
<!-- Generator: Adobe Illustrator 16.0.4, SVG Export Plug-In . SVG Version: 6.00 Build 0)  -->
<!DOCTYPE svg PUBLIC "-//W3C//DTD SVG 1.1//EN" "http://www.w3.org/Graphics/SVG/1.1/DTD/svg11.dtd">
<svg version="1.1" id="レイヤー_1" xmlns="http://www.w3.org/2000/svg" xmlns:xlink="http://www.w3.org/1999/xlink" x="0px"
	 y="0px" width="24px" height="24px" viewBox="0 0 24 24" enable-background="new 0 0 24 24" xml:space="preserve">
<path fill="#339900" d="M12,2c3.195,0,6,2.618,6,5.602c0,3.093-2.493,7.132-6,12.662c-3.507-5.529-6-9.569-6-12.662
	C6,4.618,8.804,2,12,2 M12,0C7.802,0,4,3.403,4,7.602C4,11.8,7.469,16.812,12,24c4.531-7.188,8-12.2,8-16.398
	C20,3.403,16.199,0,12,0z M12,11c-1.657,0-3-1.343-3-3s1.343-3,3-3s3,1.343,3,3S13.657,11,12,11z"/>
</svg>
